<mxfile>
    <diagram id="Pdc5NrOkINkBLXAvM5oH" name="第 1 页">
        <mxGraphModel dx="868" dy="500" grid="1" gridSize="10" guides="1" tooltips="1" connect="1" arrows="1" fold="1" page="1" pageScale="1" pageWidth="827" pageHeight="1169" math="0" shadow="0">
            <root>
                <mxCell id="0"/>
                <mxCell id="1" parent="0"/>
                <mxCell id="2" value="" style="image;html=1;image=img/lib/clip_art/computers/Server_128x128.png" parent="1" vertex="1">
                    <mxGeometry x="319" y="140" width="190" height="130" as="geometry"/>
                </mxCell>
                <mxCell id="4" value="" style="image;html=1;image=img/lib/clip_art/computers/MacBook_128x128.png" parent="1" vertex="1">
                    <mxGeometry x="400" y="420" width="110" height="120" as="geometry"/>
                </mxCell>
                <mxCell id="5" value="" style="image;html=1;image=img/lib/clip_art/computers/Monitor_Tower_128x128.png" parent="1" vertex="1">
                    <mxGeometry x="100" y="340" width="140" height="100" as="geometry"/>
                </mxCell>
                <mxCell id="6" value="" style="image;html=1;image=img/lib/clip_art/computers/Workstation_128x128.png" parent="1" vertex="1">
                    <mxGeometry x="640" y="340" width="130" height="110" as="geometry"/>
                </mxCell>
                <mxCell id="7" value="" style="html=1;shadow=0;dashed=0;align=center;verticalAlign=middle;shape=mxgraph.arrows2.twoWayArrow;dy=0.6;dx=35;direction=south;rotation=-45;strokeColor=#001DBC;fontColor=#ffffff;fillColor=#00a8e1;" parent="1" vertex="1">
                    <mxGeometry x="570" y="210" width="25" height="197.37" as="geometry"/>
                </mxCell>
                <mxCell id="8" value="" style="image;html=1;image=img/lib/clip_art/people/Suit_Man_128x128.png;fillColor=#00a8e1;" parent="1" vertex="1">
                    <mxGeometry x="720" y="340" width="80" height="80" as="geometry"/>
                </mxCell>
                <mxCell id="9" value="" style="image;html=1;image=img/lib/clip_art/people/Suit_Woman_Green_128x128.png;fillColor=#00a8e1;" parent="1" vertex="1">
                    <mxGeometry x="461" y="397.37" width="80" height="80" as="geometry"/>
                </mxCell>
                <mxCell id="10" value="" style="image;html=1;image=img/lib/clip_art/people/Telesales_Man_128x128.png;fillColor=#00a8e1;" parent="1" vertex="1">
                    <mxGeometry x="140" y="390" width="80" height="80" as="geometry"/>
                </mxCell>
                <mxCell id="11" value="" style="html=1;shadow=0;dashed=0;align=center;verticalAlign=middle;shape=mxgraph.arrows2.twoWayArrow;dy=0.6;dx=35;direction=south;rotation=0;strokeColor=#001DBC;fontColor=#ffffff;fillColor=#00a8e1;" parent="1" vertex="1">
                    <mxGeometry x="415.29" y="252.8" width="25" height="177.37" as="geometry"/>
                </mxCell>
                <mxCell id="12" value="" style="html=1;shadow=0;dashed=0;align=center;verticalAlign=middle;shape=mxgraph.arrows2.twoWayArrow;dy=0.6;dx=35;direction=south;rotation=55;strokeColor=#001DBC;fontColor=#ffffff;fillColor=#00a8e1;" parent="1" vertex="1">
                    <mxGeometry x="260" y="210" width="25" height="187.37" as="geometry"/>
                </mxCell>
                <mxCell id="kgoGbNnEa0cMUWY0xqNe-12" value="Version Database&lt;br&gt;&lt;br&gt;Version 3&lt;br&gt;|&lt;br&gt;Version 2&lt;br&gt;|&lt;br&gt;Version 1" style="shape=note;whiteSpace=wrap;html=1;backgroundOutline=1;darkOpacity=0.05;" parent="1" vertex="1">
                    <mxGeometry x="250" y="91" width="110" height="150" as="geometry"/>
                </mxCell>
            </root>
        </mxGraphModel>
    </diagram>
    <diagram id="unoKLVG5Zc5gfBuNd-oD" name="第 2 页">
        &#xa;        &#xa;        &#xa;&#xa;&#xa;
        <mxGraphModel dx="637" dy="756" grid="1" gridSize="10" guides="1" tooltips="1" connect="1" arrows="1" fold="1" page="1" pageScale="1" pageWidth="827" pageHeight="1169" math="1" shadow="0">
            &#xa;            &#xa;            &#xa;&#xa;&#xa;
            <root>
                &#xa;                &#xa;                &#xa;&#xa;&#xa;
                <mxCell id="QyGdVuNm6WI3HpWEssUY-0"/>
                &#xa;                &#xa;                &#xa;&#xa;&#xa;
                <mxCell id="QyGdVuNm6WI3HpWEssUY-1" parent="QyGdVuNm6WI3HpWEssUY-0"/>
                &#xa;                &#xa;                &#xa;&#xa;&#xa;
                <mxCell id="pLKCXht0D7RySrToJlYI-1" value="" style="image;html=1;image=img/lib/clip_art/computers/MacBook_128x128.png;" parent="QyGdVuNm6WI3HpWEssUY-1" vertex="1">
                    &#xa;                    &#xa;                    &#xa;&#xa;&#xa;
                    <mxGeometry x="360" y="290" width="110" height="120" as="geometry"/>
                    &#xa;                    &#xa;                    &#xa;&#xa;&#xa;
                </mxCell>
                &#xa;                &#xa;                &#xa;&#xa;&#xa;
                <mxCell id="pLKCXht0D7RySrToJlYI-2" value="" style="image;html=1;image=img/lib/clip_art/computers/Monitor_Tower_128x128.png;" parent="QyGdVuNm6WI3HpWEssUY-1" vertex="1">
                    &#xa;                    &#xa;                    &#xa;&#xa;&#xa;
                    <mxGeometry x="100" y="290" width="140" height="100" as="geometry"/>
                    &#xa;                    &#xa;                    &#xa;&#xa;&#xa;
                </mxCell>
                &#xa;                &#xa;                &#xa;&#xa;&#xa;
                <mxCell id="pLKCXht0D7RySrToJlYI-3" value="" style="image;html=1;image=img/lib/clip_art/computers/Workstation_128x128.png;" parent="QyGdVuNm6WI3HpWEssUY-1" vertex="1">
                    &#xa;                    &#xa;                    &#xa;&#xa;&#xa;
                    <mxGeometry x="640" y="290" width="130" height="110" as="geometry"/>
                    &#xa;                    &#xa;                    &#xa;&#xa;&#xa;
                </mxCell>
                &#xa;                &#xa;                &#xa;&#xa;&#xa;
                <mxCell id="pLKCXht0D7RySrToJlYI-4" value="" style="html=1;shadow=0;dashed=0;align=center;verticalAlign=middle;shape=mxgraph.arrows2.twoWayArrow;dy=0.6;dx=35;direction=south;rotation=-30;strokeColor=#001DBC;fontColor=#ffffff;fillColor=#00a8e1;" parent="QyGdVuNm6WI3HpWEssUY-1" vertex="1">
                    &#xa;                    &#xa;                    &#xa;&#xa;&#xa;
                    <mxGeometry x="623" y="121.88" width="17.5" height="197.37" as="geometry"/>
                    &#xa;                    &#xa;                    &#xa;&#xa;&#xa;
                </mxCell>
                &#xa;                &#xa;                &#xa;&#xa;&#xa;
                <mxCell id="pLKCXht0D7RySrToJlYI-5" value="" style="image;html=1;image=img/lib/clip_art/people/Suit_Man_128x128.png;fillColor=#00a8e1;" parent="QyGdVuNm6WI3HpWEssUY-1" vertex="1">
                    &#xa;                    &#xa;                    &#xa;&#xa;&#xa;
                    <mxGeometry x="720" y="290" width="80" height="80" as="geometry"/>
                    &#xa;                    &#xa;                    &#xa;&#xa;&#xa;
                </mxCell>
                &#xa;                &#xa;                &#xa;&#xa;&#xa;
                <mxCell id="pLKCXht0D7RySrToJlYI-6" value="" style="image;html=1;image=img/lib/clip_art/people/Suit_Woman_Green_128x128.png;fillColor=#00a8e1;" parent="QyGdVuNm6WI3HpWEssUY-1" vertex="1">
                    &#xa;                    &#xa;                    &#xa;&#xa;&#xa;
                    <mxGeometry x="430" y="277.37" width="80" height="80" as="geometry"/>
                    &#xa;                    &#xa;                    &#xa;&#xa;&#xa;
                </mxCell>
                &#xa;                &#xa;                &#xa;&#xa;&#xa;
                <mxCell id="pLKCXht0D7RySrToJlYI-7" value="" style="image;html=1;image=img/lib/clip_art/people/Telesales_Man_128x128.png;fillColor=#00a8e1;" parent="QyGdVuNm6WI3HpWEssUY-1" vertex="1">
                    &#xa;                    &#xa;                    &#xa;&#xa;&#xa;
                    <mxGeometry x="140" y="340" width="80" height="80" as="geometry"/>
                    &#xa;                    &#xa;                    &#xa;&#xa;&#xa;
                </mxCell>
                &#xa;                &#xa;                &#xa;&#xa;&#xa;
                <mxCell id="pLKCXht0D7RySrToJlYI-8" value="" style="html=1;shadow=0;dashed=0;align=center;verticalAlign=middle;shape=mxgraph.arrows2.twoWayArrow;dy=0.6;dx=35;direction=south;rotation=90;strokeColor=#001DBC;fontColor=#ffffff;fillColor=#00a8e1;" parent="QyGdVuNm6WI3HpWEssUY-1" vertex="1">
                    &#xa;                    &#xa;                    &#xa;&#xa;&#xa;
                    <mxGeometry x="332.5" y="-6.18" width="20" height="177.37" as="geometry"/>
                    &#xa;                    &#xa;                    &#xa;&#xa;&#xa;
                </mxCell>
                &#xa;                &#xa;                &#xa;&#xa;&#xa;
                <mxCell id="pLKCXht0D7RySrToJlYI-9" value="" style="html=1;shadow=0;dashed=0;align=center;verticalAlign=middle;shape=mxgraph.arrows2.twoWayArrow;dy=0.6;dx=35;direction=south;rotation=0;strokeColor=#001DBC;fontColor=#ffffff;fillColor=#00a8e1;" parent="QyGdVuNm6WI3HpWEssUY-1" vertex="1">
                    &#xa;                    &#xa;                    &#xa;&#xa;&#xa;
                    <mxGeometry x="180" y="130" width="20" height="160" as="geometry"/>
                    &#xa;                    &#xa;                    &#xa;&#xa;&#xa;
                </mxCell>
                &#xa;                &#xa;                &#xa;&#xa;&#xa;
                <mxCell id="pLKCXht0D7RySrToJlYI-10" value="" style="image;html=1;image=img/lib/clip_art/computers/IBM_Tablet_128x128.png;fillColor=#00a8e1;" parent="QyGdVuNm6WI3HpWEssUY-1" vertex="1">
                    &#xa;                    &#xa;                    &#xa;&#xa;&#xa;
                    <mxGeometry x="100" y="40" width="140" height="100" as="geometry"/>
                    &#xa;                    &#xa;                    &#xa;&#xa;&#xa;
                </mxCell>
                &#xa;                &#xa;                &#xa;&#xa;&#xa;
                <mxCell id="pLKCXht0D7RySrToJlYI-11" value="" style="image;html=1;image=img/lib/clip_art/computers/Laptop_128x128.png;fillColor=#00a8e1;" parent="QyGdVuNm6WI3HpWEssUY-1" vertex="1">
                    &#xa;                    &#xa;                    &#xa;&#xa;&#xa;
                    <mxGeometry x="470" y="30" width="125" height="110" as="geometry"/>
                    &#xa;                    &#xa;                    &#xa;&#xa;&#xa;
                </mxCell>
                &#xa;                &#xa;                &#xa;&#xa;&#xa;
                <mxCell id="pLKCXht0D7RySrToJlYI-12" value="" style="image;html=1;image=img/lib/clip_art/people/Suit_Man_Green_128x128.png;fillColor=#00a8e1;" parent="QyGdVuNm6WI3HpWEssUY-1" vertex="1">
                    &#xa;                    &#xa;                    &#xa;&#xa;&#xa;
                    <mxGeometry x="180" y="20" width="80" height="80" as="geometry"/>
                    &#xa;                    &#xa;                    &#xa;&#xa;&#xa;
                </mxCell>
                &#xa;                &#xa;                &#xa;&#xa;&#xa;
                <mxCell id="pLKCXht0D7RySrToJlYI-13" value="" style="image;html=1;image=img/lib/clip_art/people/Suit_Woman_Blue_128x128.png;fillColor=#00a8e1;" parent="QyGdVuNm6WI3HpWEssUY-1" vertex="1">
                    &#xa;                    &#xa;                    &#xa;&#xa;&#xa;
                    <mxGeometry x="542.5" y="10" width="80" height="80" as="geometry"/>
                    &#xa;                    &#xa;                    &#xa;&#xa;&#xa;
                </mxCell>
                &#xa;                &#xa;                &#xa;&#xa;&#xa;
                <mxCell id="pLKCXht0D7RySrToJlYI-14" value="" style="html=1;shadow=0;dashed=0;align=center;verticalAlign=middle;shape=mxgraph.arrows2.twoWayArrow;dy=0.6;dx=35;direction=south;rotation=90;strokeColor=#001DBC;fontColor=#ffffff;fillColor=#00a8e1;" parent="QyGdVuNm6WI3HpWEssUY-1" vertex="1">
                    &#xa;                    &#xa;                    &#xa;&#xa;&#xa;
                    <mxGeometry x="289.08" y="279.07" width="23.15" height="133.68" as="geometry"/>
                    &#xa;                    &#xa;                    &#xa;&#xa;&#xa;
                </mxCell>
                &#xa;                &#xa;                &#xa;&#xa;&#xa;
                <mxCell id="pLKCXht0D7RySrToJlYI-16" value="" style="html=1;shadow=0;dashed=0;align=center;verticalAlign=middle;shape=mxgraph.arrows2.twoWayArrow;dy=0.6;dx=35;direction=south;rotation=35;strokeColor=#001DBC;fontColor=#ffffff;fillColor=#00a8e1;" parent="QyGdVuNm6WI3HpWEssUY-1" vertex="1">
                    &#xa;                    &#xa;                    &#xa;&#xa;&#xa;
                    <mxGeometry x="461.25" y="121.88000000000001" width="17.5" height="189.25" as="geometry"/>
                    &#xa;                    &#xa;                    &#xa;&#xa;&#xa;
                </mxCell>
                &#xa;                &#xa;                &#xa;&#xa;&#xa;
            </root>
            &#xa;            &#xa;            &#xa;&#xa;&#xa;
        </mxGraphModel>
        &#xa;        &#xa;        &#xa;&#xa;&#xa;
    </diagram>
    <diagram name="第 3 页" id="fCmPRto_3n1xLNA8tY9Z">
        <mxGraphModel dx="1084" dy="756" grid="1" gridSize="10" guides="1" tooltips="1" connect="1" arrows="1" fold="1" page="1" pageScale="1" pageWidth="827" pageHeight="1169" math="0" shadow="0">
            <root>
                <mxCell id="hsG10Wll7kvdeRXDZIWz-0"/>
                <mxCell id="hsG10Wll7kvdeRXDZIWz-1" parent="hsG10Wll7kvdeRXDZIWz-0"/>
                <mxCell id="hsG10Wll7kvdeRXDZIWz-2" value="&lt;font color=&quot;#000000&quot;&gt;workspace&lt;/font&gt;" style="shape=datastore;whiteSpace=wrap;html=1;fillColor=#63b2ee;" parent="hsG10Wll7kvdeRXDZIWz-1" vertex="1">
                    <mxGeometry x="80" y="80" width="100" height="70" as="geometry"/>
                </mxCell>
                <mxCell id="hsG10Wll7kvdeRXDZIWz-3" value="&lt;font color=&quot;#000000&quot;&gt;staging&lt;/font&gt;" style="shape=datastore;whiteSpace=wrap;html=1;fillColor=#76da91;" parent="hsG10Wll7kvdeRXDZIWz-1" vertex="1">
                    <mxGeometry x="240" y="80" width="100" height="70" as="geometry"/>
                </mxCell>
                <mxCell id="hsG10Wll7kvdeRXDZIWz-4" value="&lt;font color=&quot;#000000&quot;&gt;Local repository&lt;/font&gt;" style="shape=datastore;whiteSpace=wrap;html=1;fillColor=#f8cb7f;" parent="hsG10Wll7kvdeRXDZIWz-1" vertex="1">
                    <mxGeometry x="400" y="80" width="100" height="70" as="geometry"/>
                </mxCell>
                <mxCell id="hsG10Wll7kvdeRXDZIWz-5" value="&lt;font color=&quot;#000000&quot;&gt;Remote repository&lt;/font&gt;" style="shape=datastore;whiteSpace=wrap;html=1;fillColor=#f89588;" parent="hsG10Wll7kvdeRXDZIWz-1" vertex="1">
                    <mxGeometry x="660" y="80" width="100" height="70" as="geometry"/>
                </mxCell>
                <mxCell id="hsG10Wll7kvdeRXDZIWz-6" value="" style="endArrow=none;html=1;entryX=0.5;entryY=1;entryDx=0;entryDy=0;strokeWidth=5;strokeColor=#9192ab;" parent="hsG10Wll7kvdeRXDZIWz-1" target="hsG10Wll7kvdeRXDZIWz-2" edge="1">
                    <mxGeometry width="50" height="50" relative="1" as="geometry">
                        <mxPoint x="130" y="520" as="sourcePoint"/>
                        <mxPoint x="180" y="170" as="targetPoint"/>
                    </mxGeometry>
                </mxCell>
                <mxCell id="hsG10Wll7kvdeRXDZIWz-7" value="" style="endArrow=none;html=1;entryX=0.5;entryY=1;entryDx=0;entryDy=0;strokeWidth=5;strokeColor=#9192ab;" parent="hsG10Wll7kvdeRXDZIWz-1" edge="1">
                    <mxGeometry width="50" height="50" relative="1" as="geometry">
                        <mxPoint x="290" y="520" as="sourcePoint"/>
                        <mxPoint x="289.5" y="150" as="targetPoint"/>
                    </mxGeometry>
                </mxCell>
                <mxCell id="hsG10Wll7kvdeRXDZIWz-8" value="" style="endArrow=none;html=1;entryX=0.5;entryY=1;entryDx=0;entryDy=0;strokeWidth=5;strokeColor=#9192ab;" parent="hsG10Wll7kvdeRXDZIWz-1" edge="1">
                    <mxGeometry width="50" height="50" relative="1" as="geometry">
                        <mxPoint x="450" y="520" as="sourcePoint"/>
                        <mxPoint x="449.5" y="150" as="targetPoint"/>
                    </mxGeometry>
                </mxCell>
                <mxCell id="hsG10Wll7kvdeRXDZIWz-9" value="" style="endArrow=none;html=1;entryX=0.5;entryY=1;entryDx=0;entryDy=0;strokeWidth=5;strokeColor=#9192ab;" parent="hsG10Wll7kvdeRXDZIWz-1" edge="1">
                    <mxGeometry width="50" height="50" relative="1" as="geometry">
                        <mxPoint x="710" y="520" as="sourcePoint"/>
                        <mxPoint x="709.5" y="150" as="targetPoint"/>
                    </mxGeometry>
                </mxCell>
                <mxCell id="hsG10Wll7kvdeRXDZIWz-10" value="" style="endArrow=none;dashed=1;html=1;strokeColor=#9192ab;strokeWidth=5;" parent="hsG10Wll7kvdeRXDZIWz-1" edge="1">
                    <mxGeometry width="50" height="50" relative="1" as="geometry">
                        <mxPoint x="590" y="530" as="sourcePoint"/>
                        <mxPoint x="590" y="73" as="targetPoint"/>
                    </mxGeometry>
                </mxCell>
                <mxCell id="hsG10Wll7kvdeRXDZIWz-11" value="" style="shape=flexArrow;endArrow=classic;html=1;strokeWidth=5;strokeColor=none;fillColor=#63b2ee;endWidth=16;endSize=5.74;" parent="hsG10Wll7kvdeRXDZIWz-1" edge="1">
                    <mxGeometry width="50" height="50" relative="1" as="geometry">
                        <mxPoint x="130" y="200" as="sourcePoint"/>
                        <mxPoint x="290" y="200" as="targetPoint"/>
                    </mxGeometry>
                </mxCell>
                <mxCell id="hsG10Wll7kvdeRXDZIWz-12" value="git add/mv/rm" style="edgeLabel;html=1;align=center;verticalAlign=middle;resizable=0;points=[];labelBackgroundColor=none;labelPosition=center;verticalLabelPosition=middle;fontColor=#000000;fontSize=13;spacing=0;spacingBottom=5;" parent="hsG10Wll7kvdeRXDZIWz-11" vertex="1" connectable="0">
                    <mxGeometry x="-0.2626" y="-2" relative="1" as="geometry">
                        <mxPoint as="offset"/>
                    </mxGeometry>
                </mxCell>
                <mxCell id="hsG10Wll7kvdeRXDZIWz-13" value="" style="shape=flexArrow;endArrow=classic;html=1;strokeWidth=5;strokeColor=none;fillColor=#63b2ee;endWidth=12;endSize=7.44;" parent="hsG10Wll7kvdeRXDZIWz-1" edge="1">
                    <mxGeometry width="50" height="50" relative="1" as="geometry">
                        <mxPoint x="130" y="260" as="sourcePoint"/>
                        <mxPoint x="450" y="260" as="targetPoint"/>
                    </mxGeometry>
                </mxCell>
                <mxCell id="hsG10Wll7kvdeRXDZIWz-14" value="git commit -a" style="edgeLabel;html=1;align=center;verticalAlign=middle;resizable=0;points=[];labelBackgroundColor=none;labelPosition=center;verticalLabelPosition=middle;fontColor=#000000;fontSize=13;spacing=0;spacingBottom=5;" parent="hsG10Wll7kvdeRXDZIWz-13" vertex="1" connectable="0">
                    <mxGeometry x="-0.2626" y="-2" relative="1" as="geometry">
                        <mxPoint as="offset"/>
                    </mxGeometry>
                </mxCell>
                <mxCell id="hsG10Wll7kvdeRXDZIWz-15" value="" style="shape=flexArrow;endArrow=classic;html=1;strokeWidth=5;strokeColor=none;fillColor=#76da91;endWidth=12;endSize=7.11;" parent="hsG10Wll7kvdeRXDZIWz-1" edge="1">
                    <mxGeometry width="50" height="50" relative="1" as="geometry">
                        <mxPoint x="290" y="220" as="sourcePoint"/>
                        <mxPoint x="450" y="220" as="targetPoint"/>
                    </mxGeometry>
                </mxCell>
                <mxCell id="hsG10Wll7kvdeRXDZIWz-16" value="git commit" style="edgeLabel;html=1;align=center;verticalAlign=middle;resizable=0;points=[];labelBackgroundColor=none;labelPosition=center;verticalLabelPosition=middle;fontColor=#000000;fontSize=13;spacing=0;spacingBottom=5;" parent="hsG10Wll7kvdeRXDZIWz-15" vertex="1" connectable="0">
                    <mxGeometry x="-0.2626" y="-2" relative="1" as="geometry">
                        <mxPoint as="offset"/>
                    </mxGeometry>
                </mxCell>
                <mxCell id="hsG10Wll7kvdeRXDZIWz-17" value="" style="shape=flexArrow;endArrow=classic;html=1;strokeWidth=5;strokeColor=none;fillColor=#76da91;endWidth=11;endSize=5.05;" parent="hsG10Wll7kvdeRXDZIWz-1" edge="1">
                    <mxGeometry width="50" height="50" relative="1" as="geometry">
                        <mxPoint x="289" y="297" as="sourcePoint"/>
                        <mxPoint x="129" y="297" as="targetPoint"/>
                    </mxGeometry>
                </mxCell>
                <mxCell id="hsG10Wll7kvdeRXDZIWz-18" value="git reset &amp;lt;file&amp;gt;" style="edgeLabel;html=1;align=center;verticalAlign=middle;resizable=0;points=[];labelBackgroundColor=none;labelPosition=center;verticalLabelPosition=middle;fontColor=#000000;fontSize=13;spacing=0;spacingBottom=0;spacingTop=1;" parent="hsG10Wll7kvdeRXDZIWz-17" vertex="1" connectable="0">
                    <mxGeometry x="-0.2626" y="-2" relative="1" as="geometry">
                        <mxPoint as="offset"/>
                    </mxGeometry>
                </mxCell>
                <mxCell id="hsG10Wll7kvdeRXDZIWz-19" value="" style="shape=flexArrow;endArrow=classic;html=1;strokeWidth=5;strokeColor=none;fillColor=#f8cb7f;endWidth=8;endSize=5.38;" parent="hsG10Wll7kvdeRXDZIWz-1" edge="1">
                    <mxGeometry width="50" height="50" relative="1" as="geometry">
                        <mxPoint x="450" y="339" as="sourcePoint"/>
                        <mxPoint x="129" y="339" as="targetPoint"/>
                    </mxGeometry>
                </mxCell>
                <mxCell id="hsG10Wll7kvdeRXDZIWz-20" value="git reset &amp;lt;commit&amp;gt;" style="edgeLabel;html=1;align=center;verticalAlign=middle;resizable=0;points=[];labelBackgroundColor=none;labelPosition=center;verticalLabelPosition=middle;fontColor=#000000;fontSize=13;spacing=0;spacingBottom=0;spacingTop=1;" parent="hsG10Wll7kvdeRXDZIWz-19" vertex="1" connectable="0">
                    <mxGeometry x="-0.2626" y="-2" relative="1" as="geometry">
                        <mxPoint as="offset"/>
                    </mxGeometry>
                </mxCell>
                <mxCell id="hsG10Wll7kvdeRXDZIWz-21" value="" style="endArrow=none;html=1;strokeColor=#9192ab;strokeWidth=15;fillColor=#f8cb7f;fontSize=13;fontColor=#000000;" parent="hsG10Wll7kvdeRXDZIWz-1" edge="1">
                    <mxGeometry width="50" height="50" relative="1" as="geometry">
                        <mxPoint x="132" y="390" as="sourcePoint"/>
                        <mxPoint x="289" y="390" as="targetPoint"/>
                    </mxGeometry>
                </mxCell>
                <mxCell id="hsG10Wll7kvdeRXDZIWz-22" value="git diff" style="edgeLabel;html=1;align=center;verticalAlign=middle;resizable=0;points=[];fontSize=13;fontColor=#FFFFFF;spacing=0;spacingBottom=1;labelBackgroundColor=none;" parent="hsG10Wll7kvdeRXDZIWz-21" vertex="1" connectable="0">
                    <mxGeometry x="-0.2255" relative="1" as="geometry">
                        <mxPoint as="offset"/>
                    </mxGeometry>
                </mxCell>
                <mxCell id="hsG10Wll7kvdeRXDZIWz-23" value="" style="endArrow=none;html=1;strokeColor=#9192ab;strokeWidth=15;fillColor=#f8cb7f;fontSize=13;fontColor=#000000;" parent="hsG10Wll7kvdeRXDZIWz-1" edge="1">
                    <mxGeometry width="50" height="50" relative="1" as="geometry">
                        <mxPoint x="130" y="420" as="sourcePoint"/>
                        <mxPoint x="450" y="420" as="targetPoint"/>
                    </mxGeometry>
                </mxCell>
                <mxCell id="hsG10Wll7kvdeRXDZIWz-24" value="git diff HEAD" style="edgeLabel;html=1;align=center;verticalAlign=middle;resizable=0;points=[];fontSize=13;fontColor=#FFFFFF;spacing=0;spacingBottom=1;labelBackgroundColor=none;" parent="hsG10Wll7kvdeRXDZIWz-23" vertex="1" connectable="0">
                    <mxGeometry x="-0.2255" relative="1" as="geometry">
                        <mxPoint as="offset"/>
                    </mxGeometry>
                </mxCell>
                <mxCell id="hsG10Wll7kvdeRXDZIWz-25" value="" style="shape=flexArrow;endArrow=classic;html=1;strokeWidth=5;strokeColor=none;fillColor=#f8cb7f;endWidth=8;endSize=5.54;" parent="hsG10Wll7kvdeRXDZIWz-1" edge="1">
                    <mxGeometry width="50" height="50" relative="1" as="geometry">
                        <mxPoint x="450" y="310" as="sourcePoint"/>
                        <mxPoint x="710" y="310" as="targetPoint"/>
                    </mxGeometry>
                </mxCell>
                <mxCell id="hsG10Wll7kvdeRXDZIWz-26" value="git push" style="edgeLabel;html=1;align=center;verticalAlign=middle;resizable=0;points=[];labelBackgroundColor=none;labelPosition=center;verticalLabelPosition=middle;fontColor=#000000;fontSize=13;spacing=0;spacingBottom=6;spacingTop=0;" parent="hsG10Wll7kvdeRXDZIWz-25" vertex="1" connectable="0">
                    <mxGeometry x="-0.2626" y="-2" relative="1" as="geometry">
                        <mxPoint as="offset"/>
                    </mxGeometry>
                </mxCell>
                <mxCell id="hsG10Wll7kvdeRXDZIWz-27" value="" style="shape=flexArrow;endArrow=classic;html=1;strokeWidth=5;strokeColor=none;fillColor=#F89588;endWidth=12;endSize=5.57;" parent="hsG10Wll7kvdeRXDZIWz-1" edge="1">
                    <mxGeometry width="50" height="50" relative="1" as="geometry">
                        <mxPoint x="709" y="390" as="sourcePoint"/>
                        <mxPoint x="450" y="390" as="targetPoint"/>
                    </mxGeometry>
                </mxCell>
                <mxCell id="hsG10Wll7kvdeRXDZIWz-28" value="git fetch" style="edgeLabel;html=1;align=center;verticalAlign=middle;resizable=0;points=[];labelBackgroundColor=none;labelPosition=center;verticalLabelPosition=middle;fontColor=#000000;fontSize=13;spacing=0;spacingBottom=0;spacingTop=0;" parent="hsG10Wll7kvdeRXDZIWz-27" vertex="1" connectable="0">
                    <mxGeometry x="-0.2626" y="-2" relative="1" as="geometry">
                        <mxPoint as="offset"/>
                    </mxGeometry>
                </mxCell>
                <mxCell id="hsG10Wll7kvdeRXDZIWz-29" value="" style="shape=flexArrow;endArrow=classic;startArrow=classic;html=1;strokeWidth=5;fillColor=#F89588;fontSize=13;fontColor=#FFFFFF;strokeColor=none;endWidth=10;endSize=5.87;startWidth=10;startSize=5.87;" parent="hsG10Wll7kvdeRXDZIWz-1" edge="1">
                    <mxGeometry width="50" height="50" relative="1" as="geometry">
                        <mxPoint x="130" y="470" as="sourcePoint"/>
                        <mxPoint x="710" y="470" as="targetPoint"/>
                    </mxGeometry>
                </mxCell>
                <mxCell id="hsG10Wll7kvdeRXDZIWz-30" value="git clone/pull" style="edgeLabel;html=1;align=center;verticalAlign=middle;resizable=0;points=[];fontSize=13;labelBackgroundColor=none;fontColor=#000000;spacing=0;spacingBottom=7;" parent="hsG10Wll7kvdeRXDZIWz-29" vertex="1" connectable="0">
                    <mxGeometry x="-0.2283" y="-3" relative="1" as="geometry">
                        <mxPoint as="offset"/>
                    </mxGeometry>
                </mxCell>
            </root>
        </mxGraphModel>
    </diagram>
    <diagram id="N_cPcGwXrd2l3tNhA8VR" name="第 4 页">
        <mxGraphModel dx="1084" dy="756" grid="1" gridSize="10" guides="1" tooltips="1" connect="1" arrows="1" fold="1" page="1" pageScale="1" pageWidth="827" pageHeight="1169" math="0" shadow="0">
            <root>
                <mxCell id="CDa-6SIoOV5EE0WwlD3--0"/>
                <mxCell id="CDa-6SIoOV5EE0WwlD3--1" parent="CDa-6SIoOV5EE0WwlD3--0"/>
                <mxCell id="fJd_X4LnVs_6fYGcIo7u-4" value="" style="endArrow=classic;html=1;entryX=1;entryY=0.5;entryDx=0;entryDy=0;exitX=0;exitY=0.5;exitDx=0;exitDy=0;strokeWidth=5;strokeColor=#9192AB;" parent="CDa-6SIoOV5EE0WwlD3--1" source="Gyd-NPEPwBGb2VRFiFRE-3" target="Gyd-NPEPwBGb2VRFiFRE-2" edge="1">
                    <mxGeometry width="50" height="50" relative="1" as="geometry">
                        <mxPoint x="360" y="240" as="sourcePoint"/>
                        <mxPoint x="410" y="190" as="targetPoint"/>
                    </mxGeometry>
                </mxCell>
                <mxCell id="fJd_X4LnVs_6fYGcIo7u-5" value="&lt;font color=&quot;#000000&quot; style=&quot;font-size: 15px;&quot;&gt;git clone&lt;/font&gt;" style="text;html=1;align=center;verticalAlign=middle;resizable=0;points=[];autosize=1;fontSize=15;direction=east;" parent="CDa-6SIoOV5EE0WwlD3--1" vertex="1">
                    <mxGeometry x="560" y="120" width="70" height="20" as="geometry"/>
                </mxCell>
                <mxCell id="fJd_X4LnVs_6fYGcIo7u-7" value="" style="edgeStyle=elbowEdgeStyle;elbow=vertical;endArrow=classic;html=1;strokeWidth=5;exitX=0.5;exitY=0;exitDx=0;exitDy=0;entryX=0.5;entryY=0;entryDx=0;entryDy=0;strokeColor=#9192AB;" parent="CDa-6SIoOV5EE0WwlD3--1" source="Gyd-NPEPwBGb2VRFiFRE-2" target="Gyd-NPEPwBGb2VRFiFRE-0" edge="1">
                    <mxGeometry width="50" height="50" relative="1" as="geometry">
                        <mxPoint x="200" y="620" as="sourcePoint"/>
                        <mxPoint x="250" y="570" as="targetPoint"/>
                        <Array as="points">
                            <mxPoint x="330" y="40"/>
                        </Array>
                    </mxGeometry>
                </mxCell>
                <mxCell id="hHOqzbcLlEmx7gYzsFXU-0" value="&lt;font style=&quot;font-size: 15px&quot; color=&quot;#000000&quot;&gt;与远程仓库同步&lt;/font&gt;" style="text;html=1;align=center;verticalAlign=middle;resizable=0;points=[];autosize=1;direction=east;" parent="CDa-6SIoOV5EE0WwlD3--1" vertex="1">
                    <mxGeometry x="390" y="160" width="120" height="20" as="geometry"/>
                </mxCell>
                <mxCell id="hHOqzbcLlEmx7gYzsFXU-2" value="&lt;font color=&quot;#000000&quot;&gt;&lt;span style=&quot;font-size: 15px&quot;&gt;空白&lt;br&gt;&lt;/span&gt;&lt;/font&gt;" style="text;html=1;align=center;verticalAlign=middle;resizable=0;points=[];autosize=1;direction=east;" parent="CDa-6SIoOV5EE0WwlD3--1" vertex="1">
                    <mxGeometry x="265" y="160" width="50" height="20" as="geometry"/>
                </mxCell>
                <mxCell id="hHOqzbcLlEmx7gYzsFXU-3" value="&lt;font style=&quot;font-size: 15px&quot; color=&quot;#000000&quot;&gt;与远程仓库同步&lt;/font&gt;" style="text;html=1;align=center;verticalAlign=middle;resizable=0;points=[];autosize=1;direction=east;" parent="CDa-6SIoOV5EE0WwlD3--1" vertex="1">
                    <mxGeometry x="70" y="160" width="120" height="20" as="geometry"/>
                </mxCell>
                <mxCell id="Gyd-NPEPwBGb2VRFiFRE-0" value="&lt;font color=&quot;#000000&quot; style=&quot;font-size: 15px&quot;&gt;工作区&lt;/font&gt;" style="shape=datastore;whiteSpace=wrap;html=1;fillColor=#63b2ee;" vertex="1" parent="CDa-6SIoOV5EE0WwlD3--1">
                    <mxGeometry x="80" y="80" width="100" height="70" as="geometry"/>
                </mxCell>
                <mxCell id="Gyd-NPEPwBGb2VRFiFRE-1" value="&lt;font color=&quot;#000000&quot; style=&quot;font-size: 15px&quot;&gt;暂存区&lt;/font&gt;" style="shape=datastore;whiteSpace=wrap;html=1;fillColor=#76da91;" vertex="1" parent="CDa-6SIoOV5EE0WwlD3--1">
                    <mxGeometry x="240" y="80" width="100" height="70" as="geometry"/>
                </mxCell>
                <mxCell id="Gyd-NPEPwBGb2VRFiFRE-2" value="&lt;font color=&quot;#000000&quot; style=&quot;font-size: 15px&quot;&gt;本地仓库&lt;/font&gt;" style="shape=datastore;whiteSpace=wrap;html=1;fillColor=#f8cb7f;" vertex="1" parent="CDa-6SIoOV5EE0WwlD3--1">
                    <mxGeometry x="400" y="80" width="100" height="70" as="geometry"/>
                </mxCell>
                <mxCell id="Gyd-NPEPwBGb2VRFiFRE-3" value="&lt;font color=&quot;#000000&quot; style=&quot;font-size: 15px&quot;&gt;远程仓库&lt;/font&gt;" style="shape=datastore;whiteSpace=wrap;html=1;fillColor=#f89588;" vertex="1" parent="CDa-6SIoOV5EE0WwlD3--1">
                    <mxGeometry x="660" y="80" width="100" height="70" as="geometry"/>
                </mxCell>
            </root>
        </mxGraphModel>
    </diagram>
    <diagram name="第 5 页" id="WclmCJfhY3TNRNziO1Je">
        <mxGraphModel dx="1084" dy="756" grid="1" gridSize="10" guides="1" tooltips="1" connect="1" arrows="1" fold="1" page="1" pageScale="1" pageWidth="827" pageHeight="1169" math="0" shadow="0">
            <root>
                <mxCell id="3N26r3GP-XzTVqEB-2IL-0"/>
                <mxCell id="3N26r3GP-XzTVqEB-2IL-1" parent="3N26r3GP-XzTVqEB-2IL-0"/>
                <mxCell id="3N26r3GP-XzTVqEB-2IL-6" value="" style="endArrow=classic;html=1;entryX=0;entryY=0.5;entryDx=0;entryDy=0;exitX=1;exitY=0.5;exitDx=0;exitDy=0;strokeWidth=5;strokeColor=#9192AB;" edge="1" parent="3N26r3GP-XzTVqEB-2IL-1" source="-VVYE-pYNFOS4a-MeCj5-7" target="-VVYE-pYNFOS4a-MeCj5-8">
                    <mxGeometry width="50" height="50" relative="1" as="geometry">
                        <mxPoint x="410" y="480" as="sourcePoint"/>
                        <mxPoint x="360" y="530" as="targetPoint"/>
                    </mxGeometry>
                </mxCell>
                <mxCell id="3N26r3GP-XzTVqEB-2IL-12" value="" style="endArrow=classic;html=1;entryX=0;entryY=0.5;entryDx=0;entryDy=0;exitX=1;exitY=0.5;exitDx=0;exitDy=0;strokeWidth=5;strokeColor=#9192AB;" edge="1" parent="3N26r3GP-XzTVqEB-2IL-1" source="-VVYE-pYNFOS4a-MeCj5-6" target="-VVYE-pYNFOS4a-MeCj5-7">
                    <mxGeometry width="50" height="50" relative="1" as="geometry">
                        <mxPoint x="240" y="330" as="sourcePoint"/>
                        <mxPoint x="240" y="240" as="targetPoint"/>
                    </mxGeometry>
                </mxCell>
                <mxCell id="-VVYE-pYNFOS4a-MeCj5-0" value="" style="endArrow=classic;html=1;entryX=0;entryY=0.5;entryDx=0;entryDy=0;exitX=1;exitY=0.5;exitDx=0;exitDy=0;strokeWidth=5;strokeColor=#9192AB;" edge="1" parent="3N26r3GP-XzTVqEB-2IL-1" source="-VVYE-pYNFOS4a-MeCj5-8" target="-VVYE-pYNFOS4a-MeCj5-9">
                    <mxGeometry width="50" height="50" relative="1" as="geometry">
                        <mxPoint x="410" y="190" as="sourcePoint"/>
                        <mxPoint x="360" y="240" as="targetPoint"/>
                    </mxGeometry>
                </mxCell>
                <mxCell id="-VVYE-pYNFOS4a-MeCj5-1" value="&lt;font color=&quot;#000000&quot; style=&quot;font-size: 15px&quot;&gt;git push&lt;/font&gt;" style="text;html=1;align=center;verticalAlign=middle;resizable=0;points=[];autosize=1;fontSize=15;direction=east;" vertex="1" parent="3N26r3GP-XzTVqEB-2IL-1">
                    <mxGeometry x="560" y="120" width="70" height="20" as="geometry"/>
                </mxCell>
                <mxCell id="-VVYE-pYNFOS4a-MeCj5-2" value="" style="edgeStyle=elbowEdgeStyle;elbow=vertical;endArrow=classic;html=1;strokeWidth=5;exitX=0.5;exitY=0;exitDx=0;exitDy=0;entryX=0.5;entryY=0;entryDx=0;entryDy=0;strokeColor=#9192AB;" edge="1" parent="3N26r3GP-XzTVqEB-2IL-1" source="-VVYE-pYNFOS4a-MeCj5-6" target="-VVYE-pYNFOS4a-MeCj5-8">
                    <mxGeometry width="50" height="50" relative="1" as="geometry">
                        <mxPoint x="250" y="570" as="sourcePoint"/>
                        <mxPoint x="200" y="620" as="targetPoint"/>
                        <Array as="points">
                            <mxPoint x="330" y="40"/>
                        </Array>
                    </mxGeometry>
                </mxCell>
                <mxCell id="-VVYE-pYNFOS4a-MeCj5-6" value="&lt;font color=&quot;#000000&quot; style=&quot;font-size: 15px&quot;&gt;工作区&lt;/font&gt;" style="shape=datastore;whiteSpace=wrap;html=1;fillColor=#63b2ee;" vertex="1" parent="3N26r3GP-XzTVqEB-2IL-1">
                    <mxGeometry x="60" y="80" width="100" height="70" as="geometry"/>
                </mxCell>
                <mxCell id="-VVYE-pYNFOS4a-MeCj5-7" value="&lt;font color=&quot;#000000&quot; style=&quot;font-size: 15px&quot;&gt;暂存区&lt;/font&gt;" style="shape=datastore;whiteSpace=wrap;html=1;fillColor=#76da91;" vertex="1" parent="3N26r3GP-XzTVqEB-2IL-1">
                    <mxGeometry x="240" y="80" width="100" height="70" as="geometry"/>
                </mxCell>
                <mxCell id="-VVYE-pYNFOS4a-MeCj5-8" value="&lt;font color=&quot;#000000&quot; style=&quot;font-size: 15px&quot;&gt;本地仓库&lt;/font&gt;" style="shape=datastore;whiteSpace=wrap;html=1;fillColor=#f8cb7f;" vertex="1" parent="3N26r3GP-XzTVqEB-2IL-1">
                    <mxGeometry x="446" y="80" width="100" height="70" as="geometry"/>
                </mxCell>
                <mxCell id="-VVYE-pYNFOS4a-MeCj5-9" value="&lt;font color=&quot;#000000&quot; style=&quot;font-size: 15px&quot;&gt;远程仓库&lt;/font&gt;" style="shape=datastore;whiteSpace=wrap;html=1;fillColor=#f89588;" vertex="1" parent="3N26r3GP-XzTVqEB-2IL-1">
                    <mxGeometry x="660" y="80" width="100" height="70" as="geometry"/>
                </mxCell>
                <mxCell id="-VVYE-pYNFOS4a-MeCj5-10" value="&lt;font color=&quot;#000000&quot; style=&quot;font-size: 15px&quot;&gt;git add&lt;/font&gt;" style="text;html=1;align=center;verticalAlign=middle;resizable=0;points=[];autosize=1;fontSize=15;direction=east;" vertex="1" parent="3N26r3GP-XzTVqEB-2IL-1">
                    <mxGeometry x="170" y="120" width="60" height="20" as="geometry"/>
                </mxCell>
                <mxCell id="-VVYE-pYNFOS4a-MeCj5-11" value="&lt;font color=&quot;#000000&quot; style=&quot;font-size: 15px&quot;&gt;git commit -m&lt;/font&gt;" style="text;html=1;align=center;verticalAlign=middle;resizable=0;points=[];autosize=1;fontSize=15;direction=east;" vertex="1" parent="3N26r3GP-XzTVqEB-2IL-1">
                    <mxGeometry x="336" y="120" width="110" height="20" as="geometry"/>
                </mxCell>
                <mxCell id="-VVYE-pYNFOS4a-MeCj5-12" value="&lt;font color=&quot;#000000&quot; style=&quot;font-size: 15px&quot;&gt;git commit -a&lt;/font&gt;" style="text;html=1;align=center;verticalAlign=middle;resizable=0;points=[];autosize=1;fontSize=15;direction=east;" vertex="1" parent="3N26r3GP-XzTVqEB-2IL-1">
                    <mxGeometry x="255" y="20" width="100" height="20" as="geometry"/>
                </mxCell>
            </root>
        </mxGraphModel>
    </diagram>
    <diagram name="第 6 页" id="OKH_CdFknUcF9D9GJmKp">
        <mxGraphModel dx="1084" dy="756" grid="1" gridSize="10" guides="1" tooltips="1" connect="1" arrows="1" fold="1" page="1" pageScale="1" pageWidth="827" pageHeight="1169" math="0" shadow="0">
            <root>
                <mxCell id="Mg6QCeGdR0oQI5BH6Jh8-0"/>
                <mxCell id="Mg6QCeGdR0oQI5BH6Jh8-1" parent="Mg6QCeGdR0oQI5BH6Jh8-0"/>
                <mxCell id="Mg6QCeGdR0oQI5BH6Jh8-2" value="" style="endArrow=classic;html=1;entryX=1;entryY=0.5;entryDx=0;entryDy=0;exitX=0;exitY=0.5;exitDx=0;exitDy=0;strokeWidth=5;strokeColor=#9192AB;" edge="1" parent="Mg6QCeGdR0oQI5BH6Jh8-1" source="Mg6QCeGdR0oQI5BH6Jh8-9" target="Mg6QCeGdR0oQI5BH6Jh8-8">
                    <mxGeometry width="50" height="50" relative="1" as="geometry">
                        <mxPoint x="360" y="530" as="sourcePoint"/>
                        <mxPoint x="410" y="480" as="targetPoint"/>
                    </mxGeometry>
                </mxCell>
                <mxCell id="Mg6QCeGdR0oQI5BH6Jh8-3" value="" style="endArrow=classic;html=1;entryX=1;entryY=0.5;entryDx=0;entryDy=0;exitX=0;exitY=0.5;exitDx=0;exitDy=0;strokeWidth=5;strokeColor=#9192AB;" edge="1" parent="Mg6QCeGdR0oQI5BH6Jh8-1" source="Mg6QCeGdR0oQI5BH6Jh8-8" target="Mg6QCeGdR0oQI5BH6Jh8-7">
                    <mxGeometry width="50" height="50" relative="1" as="geometry">
                        <mxPoint x="240" y="240" as="sourcePoint"/>
                        <mxPoint x="240" y="330" as="targetPoint"/>
                    </mxGeometry>
                </mxCell>
                <mxCell id="Mg6QCeGdR0oQI5BH6Jh8-4" value="" style="endArrow=classic;html=1;entryX=0;entryY=0.5;entryDx=0;entryDy=0;exitX=1;exitY=0.5;exitDx=0;exitDy=0;strokeWidth=5;strokeColor=#9192AB;" edge="1" parent="Mg6QCeGdR0oQI5BH6Jh8-1" source="Mg6QCeGdR0oQI5BH6Jh8-9" target="Mg6QCeGdR0oQI5BH6Jh8-10">
                    <mxGeometry width="50" height="50" relative="1" as="geometry">
                        <mxPoint x="410" y="190" as="sourcePoint"/>
                        <mxPoint x="360" y="240" as="targetPoint"/>
                    </mxGeometry>
                </mxCell>
                <mxCell id="Mg6QCeGdR0oQI5BH6Jh8-5" value="&lt;font color=&quot;#000000&quot; style=&quot;font-size: 15px&quot;&gt;git push&lt;/font&gt;" style="text;html=1;align=center;verticalAlign=middle;resizable=0;points=[];autosize=1;fontSize=15;direction=east;" vertex="1" parent="Mg6QCeGdR0oQI5BH6Jh8-1">
                    <mxGeometry x="560" y="120" width="70" height="20" as="geometry"/>
                </mxCell>
                <mxCell id="Mg6QCeGdR0oQI5BH6Jh8-7" value="&lt;font color=&quot;#000000&quot; style=&quot;font-size: 15px&quot;&gt;工作区&lt;/font&gt;" style="shape=datastore;whiteSpace=wrap;html=1;fillColor=#63b2ee;" vertex="1" parent="Mg6QCeGdR0oQI5BH6Jh8-1">
                    <mxGeometry x="30" y="80" width="100" height="70" as="geometry"/>
                </mxCell>
                <mxCell id="Mg6QCeGdR0oQI5BH6Jh8-8" value="&lt;font color=&quot;#000000&quot; style=&quot;font-size: 15px&quot;&gt;暂存区&lt;/font&gt;" style="shape=datastore;whiteSpace=wrap;html=1;fillColor=#76da91;" vertex="1" parent="Mg6QCeGdR0oQI5BH6Jh8-1">
                    <mxGeometry x="240" y="80" width="100" height="70" as="geometry"/>
                </mxCell>
                <mxCell id="Mg6QCeGdR0oQI5BH6Jh8-9" value="&lt;font color=&quot;#000000&quot; style=&quot;font-size: 15px&quot;&gt;本地仓库&lt;/font&gt;" style="shape=datastore;whiteSpace=wrap;html=1;fillColor=#f8cb7f;" vertex="1" parent="Mg6QCeGdR0oQI5BH6Jh8-1">
                    <mxGeometry x="446" y="80" width="100" height="70" as="geometry"/>
                </mxCell>
                <mxCell id="Mg6QCeGdR0oQI5BH6Jh8-10" value="&lt;font color=&quot;#000000&quot; style=&quot;font-size: 15px&quot;&gt;远程仓库&lt;/font&gt;" style="shape=datastore;whiteSpace=wrap;html=1;fillColor=#f89588;" vertex="1" parent="Mg6QCeGdR0oQI5BH6Jh8-1">
                    <mxGeometry x="660" y="80" width="100" height="70" as="geometry"/>
                </mxCell>
                <mxCell id="Mg6QCeGdR0oQI5BH6Jh8-11" value="&lt;font color=&quot;#000000&quot; style=&quot;font-size: 15px&quot;&gt;git checkout&lt;/font&gt;" style="text;html=1;align=center;verticalAlign=middle;resizable=0;points=[];autosize=1;fontSize=15;direction=east;" vertex="1" parent="Mg6QCeGdR0oQI5BH6Jh8-1">
                    <mxGeometry x="142" y="120" width="100" height="20" as="geometry"/>
                </mxCell>
                <mxCell id="Mg6QCeGdR0oQI5BH6Jh8-12" value="&lt;font color=&quot;#000000&quot; style=&quot;font-size: 15px&quot;&gt;git reset --files&lt;/font&gt;" style="text;html=1;align=center;verticalAlign=middle;resizable=0;points=[];autosize=1;fontSize=15;direction=east;" vertex="1" parent="Mg6QCeGdR0oQI5BH6Jh8-1">
                    <mxGeometry x="336" y="120" width="110" height="20" as="geometry"/>
                </mxCell>
                <mxCell id="Mg6QCeGdR0oQI5BH6Jh8-13" value="&lt;font color=&quot;#000000&quot; style=&quot;font-size: 15px&quot;&gt;git checkout HEAD --files&lt;/font&gt;" style="text;html=1;align=center;verticalAlign=middle;resizable=0;points=[];autosize=1;fontSize=15;direction=east;" vertex="1" parent="Mg6QCeGdR0oQI5BH6Jh8-1">
                    <mxGeometry x="215" y="20" width="180" height="20" as="geometry"/>
                </mxCell>
                <mxCell id="Mg6QCeGdR0oQI5BH6Jh8-18" value="" style="group" vertex="1" connectable="0" parent="Mg6QCeGdR0oQI5BH6Jh8-1">
                    <mxGeometry x="290" y="40" width="40" as="geometry"/>
                </mxCell>
                <mxCell id="Mg6QCeGdR0oQI5BH6Jh8-6" value="" style="edgeStyle=elbowEdgeStyle;elbow=vertical;endArrow=classic;html=1;strokeWidth=5;exitX=0.5;exitY=0;exitDx=0;exitDy=0;entryX=0.5;entryY=0;entryDx=0;entryDy=0;strokeColor=#9192AB;" edge="1" parent="Mg6QCeGdR0oQI5BH6Jh8-18" source="Mg6QCeGdR0oQI5BH6Jh8-9" target="Mg6QCeGdR0oQI5BH6Jh8-7">
                    <mxGeometry width="50" height="50" relative="1" as="geometry">
                        <mxPoint x="-90" y="580" as="sourcePoint"/>
                        <mxPoint x="-40" y="530" as="targetPoint"/>
                        <Array as="points">
                            <mxPoint x="40"/>
                        </Array>
                    </mxGeometry>
                </mxCell>
                <mxCell id="Mg6QCeGdR0oQI5BH6Jh8-16" value="" style="endArrow=classic;html=1;strokeWidth=5;strokeColor=#9192AB;" edge="1" parent="Mg6QCeGdR0oQI5BH6Jh8-18" target="Mg6QCeGdR0oQI5BH6Jh8-8">
                    <mxGeometry width="50" height="50" relative="1" as="geometry">
                        <mxPoint as="sourcePoint"/>
                        <mxPoint x="-0.5" y="40" as="targetPoint"/>
                    </mxGeometry>
                </mxCell>
                <mxCell id="Mg6QCeGdR0oQI5BH6Jh8-20" value="" style="edgeStyle=elbowEdgeStyle;elbow=vertical;endArrow=classic;html=1;strokeWidth=5;exitX=0.5;exitY=1;exitDx=0;exitDy=0;entryX=0.5;entryY=1;entryDx=0;entryDy=0;strokeColor=#9192AB;" edge="1" parent="Mg6QCeGdR0oQI5BH6Jh8-1" source="Mg6QCeGdR0oQI5BH6Jh8-10" target="Mg6QCeGdR0oQI5BH6Jh8-7">
                    <mxGeometry width="50" height="50" relative="1" as="geometry">
                        <mxPoint x="210" y="630" as="sourcePoint"/>
                        <mxPoint x="260" y="580" as="targetPoint"/>
                        <Array as="points">
                            <mxPoint x="390" y="210"/>
                        </Array>
                    </mxGeometry>
                </mxCell>
                <mxCell id="Mg6QCeGdR0oQI5BH6Jh8-21" value="" style="endArrow=classic;html=1;strokeWidth=5;strokeColor=#9192AB;entryX=0.5;entryY=1;entryDx=0;entryDy=0;" edge="1" parent="Mg6QCeGdR0oQI5BH6Jh8-1" target="Mg6QCeGdR0oQI5BH6Jh8-9">
                    <mxGeometry x="285" y="170" width="50" height="50" as="geometry">
                        <mxPoint x="496" y="210" as="sourcePoint"/>
                        <mxPoint x="284.5" y="210" as="targetPoint"/>
                    </mxGeometry>
                </mxCell>
                <mxCell id="Mg6QCeGdR0oQI5BH6Jh8-22" value="" style="endArrow=classic;html=1;strokeWidth=5;strokeColor=#9192AB;entryX=0.5;entryY=1;entryDx=0;entryDy=0;" edge="1" parent="Mg6QCeGdR0oQI5BH6Jh8-1">
                    <mxGeometry x="79" y="170" width="50" height="50" as="geometry">
                        <mxPoint x="290" y="210" as="sourcePoint"/>
                        <mxPoint x="290" y="150" as="targetPoint"/>
                    </mxGeometry>
                </mxCell>
                <mxCell id="Mg6QCeGdR0oQI5BH6Jh8-23" value="&lt;font color=&quot;#000000&quot; style=&quot;font-size: 15px&quot;&gt;git pull&lt;/font&gt;" style="text;html=1;align=center;verticalAlign=middle;resizable=0;points=[];autosize=1;fontSize=15;direction=east;" vertex="1" parent="Mg6QCeGdR0oQI5BH6Jh8-1">
                    <mxGeometry x="361" y="220" width="60" height="20" as="geometry"/>
                </mxCell>
            </root>
        </mxGraphModel>
    </diagram>
    <diagram id="7ItuoURuwSVAFCzBI2ja" name="第 7 页">
        <mxGraphModel dx="756" dy="756" grid="1" gridSize="10" guides="1" tooltips="1" connect="1" arrows="1" fold="1" page="1" pageScale="1" pageWidth="827" pageHeight="1169" math="0" shadow="0">
            <root>
                <mxCell id="xdQl_-0J9JMo_hi9Dcln-0"/>
                <mxCell id="xdQl_-0J9JMo_hi9Dcln-1" parent="xdQl_-0J9JMo_hi9Dcln-0"/>
                <mxCell id="xdQl_-0J9JMo_hi9Dcln-2" value="" style="ellipse;whiteSpace=wrap;html=1;aspect=fixed;fillColor=#898989;strokeColor=none;" vertex="1" parent="xdQl_-0J9JMo_hi9Dcln-1">
                    <mxGeometry x="120" y="229" width="40" height="40" as="geometry"/>
                </mxCell>
                <mxCell id="Dd0pOdrmLJXZ-sOfYu4d-0" value="" style="endArrow=classic;html=1;exitX=1;exitY=0.5;exitDx=0;exitDy=0;strokeWidth=5;strokeColor=#96d7f9;" edge="1" parent="xdQl_-0J9JMo_hi9Dcln-1">
                    <mxGeometry width="50" height="50" relative="1" as="geometry">
                        <mxPoint x="160" y="248.5" as="sourcePoint"/>
                        <mxPoint x="250" y="249" as="targetPoint"/>
                    </mxGeometry>
                </mxCell>
                <mxCell id="Dd0pOdrmLJXZ-sOfYu4d-1" value="" style="ellipse;whiteSpace=wrap;html=1;aspect=fixed;strokeColor=none;fillColor=#d12a6a;" vertex="1" parent="xdQl_-0J9JMo_hi9Dcln-1">
                    <mxGeometry x="250" y="229" width="40" height="40" as="geometry"/>
                </mxCell>
                <mxCell id="Dd0pOdrmLJXZ-sOfYu4d-2" value="" style="endArrow=classic;html=1;exitX=1;exitY=0.5;exitDx=0;exitDy=0;strokeWidth=5;strokeColor=#96d7f9;" edge="1" parent="xdQl_-0J9JMo_hi9Dcln-1">
                    <mxGeometry width="50" height="50" relative="1" as="geometry">
                        <mxPoint x="290" y="248.5" as="sourcePoint"/>
                        <mxPoint x="380" y="249" as="targetPoint"/>
                    </mxGeometry>
                </mxCell>
                <mxCell id="Dd0pOdrmLJXZ-sOfYu4d-3" value="" style="ellipse;whiteSpace=wrap;html=1;aspect=fixed;strokeColor=none;fillColor=#16afcc;" vertex="1" parent="xdQl_-0J9JMo_hi9Dcln-1">
                    <mxGeometry x="380" y="229" width="40" height="40" as="geometry"/>
                </mxCell>
                <mxCell id="Dd0pOdrmLJXZ-sOfYu4d-4" value="" style="endArrow=classic;html=1;exitX=1;exitY=0.5;exitDx=0;exitDy=0;strokeWidth=5;strokeColor=#96d7f9;" edge="1" parent="xdQl_-0J9JMo_hi9Dcln-1">
                    <mxGeometry width="50" height="50" relative="1" as="geometry">
                        <mxPoint x="420" y="248.5" as="sourcePoint"/>
                        <mxPoint x="510" y="249" as="targetPoint"/>
                    </mxGeometry>
                </mxCell>
                <mxCell id="Dd0pOdrmLJXZ-sOfYu4d-5" value="" style="ellipse;whiteSpace=wrap;html=1;aspect=fixed;strokeColor=none;fillColor=#85c021;" vertex="1" parent="xdQl_-0J9JMo_hi9Dcln-1">
                    <mxGeometry x="510" y="229" width="40" height="40" as="geometry"/>
                </mxCell>
                <mxCell id="Dd0pOdrmLJXZ-sOfYu4d-6" value="&lt;font color=&quot;#000000&quot; style=&quot;font-size: 15px&quot;&gt;master&lt;/font&gt;" style="rounded=1;whiteSpace=wrap;html=1;fillColor=#0e72cc;strokeColor=none;" vertex="1" parent="xdQl_-0J9JMo_hi9Dcln-1">
                    <mxGeometry x="490" y="140" width="80" height="30" as="geometry"/>
                </mxCell>
                <mxCell id="Dd0pOdrmLJXZ-sOfYu4d-7" value="" style="endArrow=classic;html=1;exitX=0.5;exitY=1;exitDx=0;exitDy=0;strokeWidth=5;entryX=0.5;entryY=0;entryDx=0;entryDy=0;strokeColor=#96d7f9;" edge="1" parent="xdQl_-0J9JMo_hi9Dcln-1" source="Dd0pOdrmLJXZ-sOfYu4d-6" target="Dd0pOdrmLJXZ-sOfYu4d-5">
                    <mxGeometry width="50" height="50" relative="1" as="geometry">
                        <mxPoint x="560" y="210" as="sourcePoint"/>
                        <mxPoint x="650" y="210.5" as="targetPoint"/>
                    </mxGeometry>
                </mxCell>
                <mxCell id="ArLcgcp2Zm49Iqynezn0-0" value="&lt;font color=&quot;#000000&quot;&gt;&lt;span style=&quot;font-size: 15px&quot;&gt;HEAD&lt;/span&gt;&lt;/font&gt;" style="rounded=1;whiteSpace=wrap;html=1;fillColor=#fa4343;strokeColor=none;" vertex="1" parent="xdQl_-0J9JMo_hi9Dcln-1">
                    <mxGeometry x="490" y="60" width="80" height="30" as="geometry"/>
                </mxCell>
                <mxCell id="ArLcgcp2Zm49Iqynezn0-1" value="" style="endArrow=classic;html=1;exitX=0.5;exitY=1;exitDx=0;exitDy=0;strokeWidth=5;entryX=0.5;entryY=0;entryDx=0;entryDy=0;strokeColor=#96d7f9;" edge="1" parent="xdQl_-0J9JMo_hi9Dcln-1" source="ArLcgcp2Zm49Iqynezn0-0" target="Dd0pOdrmLJXZ-sOfYu4d-6">
                    <mxGeometry width="50" height="50" relative="1" as="geometry">
                        <mxPoint x="540" y="180" as="sourcePoint"/>
                        <mxPoint x="540" y="239" as="targetPoint"/>
                    </mxGeometry>
                </mxCell>
            </root>
        </mxGraphModel>
    </diagram>
    <diagram id="v02XJ2vH-8biBooDAKDN" name="第 8 页">
        <mxGraphModel dx="1911" dy="1080" grid="1" gridSize="10" guides="1" tooltips="1" connect="1" arrows="1" fold="1" page="1" pageScale="1" pageWidth="827" pageHeight="1169" math="0" shadow="0">
            <root>
                <mxCell id="pGOpLhrLpB8ZQS6ZSDxt-0"/>
                <mxCell id="pGOpLhrLpB8ZQS6ZSDxt-1" parent="pGOpLhrLpB8ZQS6ZSDxt-0"/>
                <mxCell id="Y9c0Q21nE4neBh5b3G0G-0" value="" style="ellipse;whiteSpace=wrap;html=1;aspect=fixed;fillColor=#898989;strokeColor=none;" vertex="1" parent="pGOpLhrLpB8ZQS6ZSDxt-1">
                    <mxGeometry x="20" y="229" width="40" height="40" as="geometry"/>
                </mxCell>
                <mxCell id="Y9c0Q21nE4neBh5b3G0G-1" value="" style="endArrow=classic;html=1;exitX=1;exitY=0.5;exitDx=0;exitDy=0;strokeWidth=5;strokeColor=#96d7f9;" edge="1" parent="pGOpLhrLpB8ZQS6ZSDxt-1">
                    <mxGeometry width="50" height="50" relative="1" as="geometry">
                        <mxPoint x="60" y="248.5" as="sourcePoint"/>
                        <mxPoint x="150" y="249" as="targetPoint"/>
                    </mxGeometry>
                </mxCell>
                <mxCell id="Y9c0Q21nE4neBh5b3G0G-2" value="" style="ellipse;whiteSpace=wrap;html=1;aspect=fixed;strokeColor=none;fillColor=#d12a6a;" vertex="1" parent="pGOpLhrLpB8ZQS6ZSDxt-1">
                    <mxGeometry x="150" y="229" width="40" height="40" as="geometry"/>
                </mxCell>
                <mxCell id="Y9c0Q21nE4neBh5b3G0G-3" value="" style="endArrow=classic;html=1;exitX=1;exitY=0.5;exitDx=0;exitDy=0;strokeWidth=5;strokeColor=#96d7f9;" edge="1" parent="pGOpLhrLpB8ZQS6ZSDxt-1">
                    <mxGeometry width="50" height="50" relative="1" as="geometry">
                        <mxPoint x="190" y="248.5" as="sourcePoint"/>
                        <mxPoint x="280" y="249" as="targetPoint"/>
                    </mxGeometry>
                </mxCell>
                <mxCell id="Y9c0Q21nE4neBh5b3G0G-4" value="" style="ellipse;whiteSpace=wrap;html=1;aspect=fixed;strokeColor=none;fillColor=#16afcc;" vertex="1" parent="pGOpLhrLpB8ZQS6ZSDxt-1">
                    <mxGeometry x="280" y="229" width="40" height="40" as="geometry"/>
                </mxCell>
                <mxCell id="Y9c0Q21nE4neBh5b3G0G-5" value="" style="endArrow=classic;html=1;exitX=1;exitY=0.5;exitDx=0;exitDy=0;strokeWidth=5;strokeColor=#96d7f9;" edge="1" parent="pGOpLhrLpB8ZQS6ZSDxt-1">
                    <mxGeometry width="50" height="50" relative="1" as="geometry">
                        <mxPoint x="320" y="248.5" as="sourcePoint"/>
                        <mxPoint x="410" y="249" as="targetPoint"/>
                    </mxGeometry>
                </mxCell>
                <mxCell id="Y9c0Q21nE4neBh5b3G0G-6" value="" style="ellipse;whiteSpace=wrap;html=1;aspect=fixed;strokeColor=none;fillColor=#85c021;" vertex="1" parent="pGOpLhrLpB8ZQS6ZSDxt-1">
                    <mxGeometry x="410" y="229" width="40" height="40" as="geometry"/>
                </mxCell>
                <mxCell id="Y9c0Q21nE4neBh5b3G0G-7" value="&lt;font color=&quot;#000000&quot; style=&quot;font-size: 15px&quot;&gt;master&lt;/font&gt;" style="rounded=1;whiteSpace=wrap;html=1;fillColor=#0e72cc;strokeColor=none;" vertex="1" parent="pGOpLhrLpB8ZQS6ZSDxt-1">
                    <mxGeometry x="390" y="140" width="80" height="30" as="geometry"/>
                </mxCell>
                <mxCell id="Y9c0Q21nE4neBh5b3G0G-8" value="" style="endArrow=classic;html=1;exitX=0.5;exitY=1;exitDx=0;exitDy=0;strokeWidth=5;entryX=0.5;entryY=0;entryDx=0;entryDy=0;strokeColor=#96d7f9;" edge="1" parent="pGOpLhrLpB8ZQS6ZSDxt-1" source="Y9c0Q21nE4neBh5b3G0G-7" target="Y9c0Q21nE4neBh5b3G0G-6">
                    <mxGeometry width="50" height="50" relative="1" as="geometry">
                        <mxPoint x="460" y="210" as="sourcePoint"/>
                        <mxPoint x="550" y="210.5" as="targetPoint"/>
                    </mxGeometry>
                </mxCell>
                <mxCell id="Y9c0Q21nE4neBh5b3G0G-11" value="" style="ellipse;whiteSpace=wrap;html=1;aspect=fixed;strokeColor=none;fillColor=#f8cb7f;" vertex="1" parent="pGOpLhrLpB8ZQS6ZSDxt-1">
                    <mxGeometry x="470" y="320" width="40" height="40" as="geometry"/>
                </mxCell>
                <mxCell id="Y9c0Q21nE4neBh5b3G0G-12" value="" style="ellipse;whiteSpace=wrap;html=1;aspect=fixed;strokeColor=none;fillColor=#f89588;" vertex="1" parent="pGOpLhrLpB8ZQS6ZSDxt-1">
                    <mxGeometry x="598" y="320" width="40" height="40" as="geometry"/>
                </mxCell>
                <mxCell id="Y9c0Q21nE4neBh5b3G0G-13" value="" style="endArrow=classic;html=1;exitX=1;exitY=0.5;exitDx=0;exitDy=0;strokeWidth=5;strokeColor=#96d7f9;" edge="1" parent="pGOpLhrLpB8ZQS6ZSDxt-1">
                    <mxGeometry width="50" height="50" relative="1" as="geometry">
                        <mxPoint x="510" y="340" as="sourcePoint"/>
                        <mxPoint x="600" y="340.5" as="targetPoint"/>
                    </mxGeometry>
                </mxCell>
                <mxCell id="Y9c0Q21nE4neBh5b3G0G-14" value="" style="endArrow=classic;html=1;exitX=1;exitY=0.5;exitDx=0;exitDy=0;strokeWidth=5;strokeColor=#96d7f9;" edge="1" parent="pGOpLhrLpB8ZQS6ZSDxt-1">
                    <mxGeometry width="50" height="50" relative="1" as="geometry">
                        <mxPoint x="638" y="339.5" as="sourcePoint"/>
                        <mxPoint x="728" y="340" as="targetPoint"/>
                    </mxGeometry>
                </mxCell>
                <mxCell id="Y9c0Q21nE4neBh5b3G0G-15" value="" style="ellipse;whiteSpace=wrap;html=1;aspect=fixed;strokeColor=none;fillColor=#9192ab;" vertex="1" parent="pGOpLhrLpB8ZQS6ZSDxt-1">
                    <mxGeometry x="730" y="320" width="40" height="40" as="geometry"/>
                </mxCell>
                <mxCell id="Y9c0Q21nE4neBh5b3G0G-16" value="" style="endArrow=classic;html=1;strokeWidth=5;strokeColor=#96d7f9;entryX=0;entryY=0;entryDx=0;entryDy=0;" edge="1" parent="pGOpLhrLpB8ZQS6ZSDxt-1" target="Y9c0Q21nE4neBh5b3G0G-11">
                    <mxGeometry width="50" height="50" relative="1" as="geometry">
                        <mxPoint x="430" y="269" as="sourcePoint"/>
                        <mxPoint x="520" y="269.5" as="targetPoint"/>
                    </mxGeometry>
                </mxCell>
                <mxCell id="Y9c0Q21nE4neBh5b3G0G-17" value="&lt;font color=&quot;#000000&quot; style=&quot;font-size: 15px&quot;&gt;dev&lt;/font&gt;" style="rounded=1;whiteSpace=wrap;html=1;strokeColor=none;fillColor=#38cb7d;" vertex="1" parent="pGOpLhrLpB8ZQS6ZSDxt-1">
                    <mxGeometry x="710" y="410" width="80" height="30" as="geometry"/>
                </mxCell>
                <mxCell id="Y9c0Q21nE4neBh5b3G0G-18" value="&lt;font color=&quot;#000000&quot;&gt;&lt;span style=&quot;font-size: 15px&quot;&gt;HEAD&lt;/span&gt;&lt;/font&gt;" style="rounded=1;whiteSpace=wrap;html=1;fillColor=#fa4343;strokeColor=none;" vertex="1" parent="pGOpLhrLpB8ZQS6ZSDxt-1">
                    <mxGeometry x="710" y="490" width="80" height="30" as="geometry"/>
                </mxCell>
                <mxCell id="Y9c0Q21nE4neBh5b3G0G-19" value="" style="endArrow=classic;html=1;strokeWidth=5;strokeColor=#96d7f9;" edge="1" parent="pGOpLhrLpB8ZQS6ZSDxt-1">
                    <mxGeometry width="50" height="50" relative="1" as="geometry">
                        <mxPoint x="750" y="490" as="sourcePoint"/>
                        <mxPoint x="750" y="440" as="targetPoint"/>
                    </mxGeometry>
                </mxCell>
                <mxCell id="Y9c0Q21nE4neBh5b3G0G-20" value="" style="endArrow=classic;html=1;strokeWidth=5;strokeColor=#96d7f9;" edge="1" parent="pGOpLhrLpB8ZQS6ZSDxt-1">
                    <mxGeometry width="50" height="50" relative="1" as="geometry">
                        <mxPoint x="749.5" y="410" as="sourcePoint"/>
                        <mxPoint x="749.5" y="360" as="targetPoint"/>
                    </mxGeometry>
                </mxCell>
            </root>
        </mxGraphModel>
    </diagram>
    <diagram name="第 9 页" id="US0uP6qV-XH6e1c2daZH">
        <mxGraphModel dx="1338" dy="756" grid="1" gridSize="10" guides="1" tooltips="1" connect="1" arrows="1" fold="1" page="1" pageScale="1" pageWidth="1169" pageHeight="827" math="0" shadow="0">
            <root>
                <mxCell id="XITXSFehhxoP9reYnlHk-0"/>
                <mxCell id="XITXSFehhxoP9reYnlHk-1" parent="XITXSFehhxoP9reYnlHk-0"/>
                <mxCell id="XITXSFehhxoP9reYnlHk-2" value="" style="ellipse;whiteSpace=wrap;html=1;aspect=fixed;fillColor=#898989;strokeColor=none;" vertex="1" parent="XITXSFehhxoP9reYnlHk-1">
                    <mxGeometry x="20" y="229" width="40" height="40" as="geometry"/>
                </mxCell>
                <mxCell id="XITXSFehhxoP9reYnlHk-3" value="" style="endArrow=classic;html=1;exitX=1;exitY=0.5;exitDx=0;exitDy=0;strokeWidth=5;strokeColor=#96d7f9;" edge="1" parent="XITXSFehhxoP9reYnlHk-1">
                    <mxGeometry width="50" height="50" relative="1" as="geometry">
                        <mxPoint x="60" y="248.5" as="sourcePoint"/>
                        <mxPoint x="150" y="249" as="targetPoint"/>
                    </mxGeometry>
                </mxCell>
                <mxCell id="XITXSFehhxoP9reYnlHk-4" value="" style="ellipse;whiteSpace=wrap;html=1;aspect=fixed;strokeColor=none;fillColor=#d12a6a;" vertex="1" parent="XITXSFehhxoP9reYnlHk-1">
                    <mxGeometry x="150" y="229" width="40" height="40" as="geometry"/>
                </mxCell>
                <mxCell id="XITXSFehhxoP9reYnlHk-5" value="" style="endArrow=classic;html=1;exitX=1;exitY=0.5;exitDx=0;exitDy=0;strokeWidth=5;strokeColor=#96d7f9;" edge="1" parent="XITXSFehhxoP9reYnlHk-1">
                    <mxGeometry width="50" height="50" relative="1" as="geometry">
                        <mxPoint x="190" y="248.5" as="sourcePoint"/>
                        <mxPoint x="280" y="249" as="targetPoint"/>
                    </mxGeometry>
                </mxCell>
                <mxCell id="XITXSFehhxoP9reYnlHk-6" value="" style="ellipse;whiteSpace=wrap;html=1;aspect=fixed;strokeColor=none;fillColor=#16afcc;" vertex="1" parent="XITXSFehhxoP9reYnlHk-1">
                    <mxGeometry x="280" y="229" width="40" height="40" as="geometry"/>
                </mxCell>
                <mxCell id="XITXSFehhxoP9reYnlHk-7" value="" style="endArrow=classic;html=1;exitX=1;exitY=0.5;exitDx=0;exitDy=0;strokeWidth=5;strokeColor=#96d7f9;" edge="1" parent="XITXSFehhxoP9reYnlHk-1">
                    <mxGeometry width="50" height="50" relative="1" as="geometry">
                        <mxPoint x="320" y="248.5" as="sourcePoint"/>
                        <mxPoint x="410" y="249" as="targetPoint"/>
                    </mxGeometry>
                </mxCell>
                <mxCell id="XITXSFehhxoP9reYnlHk-8" value="" style="ellipse;whiteSpace=wrap;html=1;aspect=fixed;strokeColor=none;fillColor=#85c021;" vertex="1" parent="XITXSFehhxoP9reYnlHk-1">
                    <mxGeometry x="410" y="229" width="40" height="40" as="geometry"/>
                </mxCell>
                <mxCell id="XITXSFehhxoP9reYnlHk-9" value="&lt;font color=&quot;#000000&quot; style=&quot;font-size: 15px&quot;&gt;master&lt;/font&gt;" style="rounded=1;whiteSpace=wrap;html=1;fillColor=#0e72cc;strokeColor=none;" vertex="1" parent="XITXSFehhxoP9reYnlHk-1">
                    <mxGeometry x="780" y="141" width="80" height="30" as="geometry"/>
                </mxCell>
                <mxCell id="XITXSFehhxoP9reYnlHk-10" value="" style="endArrow=classic;html=1;exitX=0.5;exitY=1;exitDx=0;exitDy=0;strokeWidth=5;entryX=0.5;entryY=0;entryDx=0;entryDy=0;strokeColor=#96d7f9;" edge="1" parent="XITXSFehhxoP9reYnlHk-1" source="XITXSFehhxoP9reYnlHk-9">
                    <mxGeometry width="50" height="50" relative="1" as="geometry">
                        <mxPoint x="850" y="211" as="sourcePoint"/>
                        <mxPoint x="820" y="230" as="targetPoint"/>
                    </mxGeometry>
                </mxCell>
                <mxCell id="XITXSFehhxoP9reYnlHk-11" value="" style="ellipse;whiteSpace=wrap;html=1;aspect=fixed;strokeColor=none;fillColor=#f8cb7f;" vertex="1" parent="XITXSFehhxoP9reYnlHk-1">
                    <mxGeometry x="470" y="320" width="40" height="40" as="geometry"/>
                </mxCell>
                <mxCell id="XITXSFehhxoP9reYnlHk-12" value="" style="ellipse;whiteSpace=wrap;html=1;aspect=fixed;strokeColor=none;fillColor=#f89588;" vertex="1" parent="XITXSFehhxoP9reYnlHk-1">
                    <mxGeometry x="598" y="320" width="40" height="40" as="geometry"/>
                </mxCell>
                <mxCell id="XITXSFehhxoP9reYnlHk-13" value="" style="endArrow=classic;html=1;exitX=1;exitY=0.5;exitDx=0;exitDy=0;strokeWidth=5;strokeColor=#96d7f9;" edge="1" parent="XITXSFehhxoP9reYnlHk-1">
                    <mxGeometry width="50" height="50" relative="1" as="geometry">
                        <mxPoint x="510" y="340" as="sourcePoint"/>
                        <mxPoint x="600" y="340.5" as="targetPoint"/>
                    </mxGeometry>
                </mxCell>
                <mxCell id="XITXSFehhxoP9reYnlHk-14" value="" style="endArrow=classic;html=1;exitX=1;exitY=0.5;exitDx=0;exitDy=0;strokeWidth=5;strokeColor=#96d7f9;" edge="1" parent="XITXSFehhxoP9reYnlHk-1">
                    <mxGeometry width="50" height="50" relative="1" as="geometry">
                        <mxPoint x="638" y="339.5" as="sourcePoint"/>
                        <mxPoint x="728" y="340" as="targetPoint"/>
                    </mxGeometry>
                </mxCell>
                <mxCell id="XITXSFehhxoP9reYnlHk-15" value="" style="ellipse;whiteSpace=wrap;html=1;aspect=fixed;strokeColor=none;fillColor=#9192ab;" vertex="1" parent="XITXSFehhxoP9reYnlHk-1">
                    <mxGeometry x="730" y="320" width="40" height="40" as="geometry"/>
                </mxCell>
                <mxCell id="XITXSFehhxoP9reYnlHk-16" value="" style="endArrow=classic;html=1;strokeWidth=5;strokeColor=#96d7f9;entryX=0;entryY=0;entryDx=0;entryDy=0;" edge="1" parent="XITXSFehhxoP9reYnlHk-1" target="XITXSFehhxoP9reYnlHk-11">
                    <mxGeometry width="50" height="50" relative="1" as="geometry">
                        <mxPoint x="430" y="269" as="sourcePoint"/>
                        <mxPoint x="520" y="269.5" as="targetPoint"/>
                    </mxGeometry>
                </mxCell>
                <mxCell id="XITXSFehhxoP9reYnlHk-18" value="&lt;font color=&quot;#000000&quot;&gt;&lt;span style=&quot;font-size: 15px&quot;&gt;HEAD&lt;/span&gt;&lt;/font&gt;" style="rounded=1;whiteSpace=wrap;html=1;fillColor=#fa4343;strokeColor=none;" vertex="1" parent="XITXSFehhxoP9reYnlHk-1">
                    <mxGeometry x="779" y="51" width="80" height="30" as="geometry"/>
                </mxCell>
                <mxCell id="XITXSFehhxoP9reYnlHk-19" value="" style="endArrow=classic;html=1;strokeWidth=5;strokeColor=#96d7f9;exitX=0.5;exitY=1;exitDx=0;exitDy=0;" edge="1" parent="XITXSFehhxoP9reYnlHk-1" target="XITXSFehhxoP9reYnlHk-9" source="XITXSFehhxoP9reYnlHk-18">
                    <mxGeometry width="50" height="50" relative="1" as="geometry">
                        <mxPoint x="830" y="50" as="sourcePoint"/>
                        <mxPoint x="830" as="targetPoint"/>
                    </mxGeometry>
                </mxCell>
                <mxCell id="XITXSFehhxoP9reYnlHk-21" value="" style="endArrow=classic;html=1;exitX=1;exitY=0.5;exitDx=0;exitDy=0;strokeWidth=5;strokeColor=#96d7f9;entryX=0;entryY=0.5;entryDx=0;entryDy=0;" edge="1" parent="XITXSFehhxoP9reYnlHk-1" target="XITXSFehhxoP9reYnlHk-22">
                    <mxGeometry width="50" height="50" relative="1" as="geometry">
                        <mxPoint x="450" y="248.5" as="sourcePoint"/>
                        <mxPoint x="780" y="249" as="targetPoint"/>
                    </mxGeometry>
                </mxCell>
                <mxCell id="XITXSFehhxoP9reYnlHk-22" value="" style="ellipse;whiteSpace=wrap;html=1;aspect=fixed;strokeColor=none;fillColor=#f05326;" vertex="1" parent="XITXSFehhxoP9reYnlHk-1">
                    <mxGeometry x="800" y="229" width="40" height="40" as="geometry"/>
                </mxCell>
                <mxCell id="XITXSFehhxoP9reYnlHk-23" value="" style="endArrow=classic;html=1;exitX=1;exitY=0.5;exitDx=0;exitDy=0;strokeWidth=5;strokeColor=#96d7f9;entryX=0.5;entryY=1;entryDx=0;entryDy=0;" edge="1" parent="XITXSFehhxoP9reYnlHk-1" target="XITXSFehhxoP9reYnlHk-22">
                    <mxGeometry width="50" height="50" relative="1" as="geometry">
                        <mxPoint x="770" y="339.5" as="sourcePoint"/>
                        <mxPoint x="860" y="340" as="targetPoint"/>
                    </mxGeometry>
                </mxCell>
            </root>
        </mxGraphModel>
    </diagram>
</mxfile>